/* XPM */
static char *_2b2f2683f3a43eb86bee35b675783e5AlAggRJZx33v2s1W[] = {
/* columns rows colors chars-per-pixel */
"32 32 94 2 ",
"   c #202535",
".  c #262A33",
"X  c #282C36",
"o  c #212638",
"O  c #252A3D",
"+  c #2A2D3D",
"@  c #2D323C",
"#  c #272C41",
"$  c #292E43",
"%  c #2B2F48",
"&  c #2D3244",
"*  c #2E334B",
"=  c #313646",
"-  c #393647",
";  c #333A45",
":  c #32364C",
">  c #3A374D",
",  c #343B4C",
"<  c #3A3B4E",
"1  c #313751",
"2  c #353B52",
"3  c #393E53",
"4  c #3F3C5A",
"5  c #413E51",
"6  c #3C4355",
"7  c #3D445B",
"8  c #3F485B",
"9  c #3E4561",
"0  c #40475B",
"q  c #49465A",
"w  c #424A5D",
"e  c #4B4D5E",
"r  c #414765",
"t  c #444C63",
"y  c #4C4E61",
"u  c #464D69",
"i  c #484E6C",
"p  c #514E63",
"a  c #475064",
"s  c #4A5265",
"d  c #47506C",
"f  c #4D556B",
"g  c #4E596D",
"h  c #525365",
"j  c #51576C",
"k  c #58546A",
"l  c #525A6E",
"z  c #5C596F",
"x  c #4D5574",
"c  c #545D72",
"v  c #5A5E72",
"b  c #545D7E",
"n  c #615F75",
"m  c #566175",
"M  c #5A6175",
"N  c #576178",
"B  c #5B657B",
"V  c #5E697D",
"C  c #60677A",
"Z  c #626A7D",
"A  c #576082",
"S  c #5A6487",
"D  c #5F6A80",
"F  c #5E698B",
"G  c #636D83",
"H  c #6B6C83",
"J  c #656F88",
"K  c #736F88",
"L  c #667185",
"P  c #697285",
"I  c #677289",
"U  c #6B748B",
"Y  c #6E788F",
"T  c #71798E",
"R  c #6D7790",
"E  c #6E7991",
"W  c #727D94",
"Q  c #727F99",
"!  c #758096",
"~  c #788096",
"^  c #75819A",
"/  c #7B849C",
"(  c #7F8A9E",
")  c #7D87A0",
"_  c #7E89A1",
"`  c #808A9E",
"'  c #828CA4",
"]  c #858FA8",
"[  c #8690A9",
"{  c #8A94AC",
"}  c #8E97B0",
"|  c #8F99B2",
" . c #929BB4",
".. c #96A1B9",
/* pixels */
"_ / ~ ! E U J G B l . T ! ! ~ ! ! Z Z Z M . s f g g s t [ [ _ _ ",
"/ ~ W Y U L B m c s M l Z Z P Z C C C C z . 6 w 8 8 = . ( / ) ) ",
"U I L J V B s v l s v V Z Z Z C C v v h s . .   . . . . E E E E ",
"I J D D B b v c s . j z C v v v v v k h a . . @ ; 6 , . I R E I ",
"J D V B B m c s & . s h Z z z l h y y e < ; 6 6 8 8 w t . D I L ",
"V B B B v g d % . . < 3 y v 6 s e e < ; . 6 6 e s s f g s d V D ",
"N m c G 1 * * . 6 w w . < < < , 6 @ . . ; 0 a s l m V B m . x N ",
"c g 2 1 : * = 8 s l C V a . . & ; 6 6 . 8 s l j G L I I I N 7 c ",
"g 2 # * . = 6 f m D W W Y 7 . 6 8 e t . s c V L Y W ! ~ ^ I X 6 ",
"* * % . . e w m D Y ! ] ! r , 0 s f g . w m L E ^ ( ' ] _ E d . ",
"% . J _ ; , a m D R ^ ^ U u 6 y g M s . 1 f m E ' [ } _ ^ b x . ",
"_ } ' ~ Y . 1 9 d A S S x . * , 3 7 . @ & . d d U ^ F F x A x . ",
"{ _ / W G s . . . . . . . . . . . . $ 6 9 , . 9 x b S F S   ^ | ",
"_ ^ E D B t @ , , 6 6 , = = & +   . 2 6 6 . ! ^ . . b . . ) _ _ ",
"E I J B v 8 2 6 7 8 0 0 6 6 , & # . $ . I / U [ ^ . 9 B N ! ^ ! ",
"J D B N g 6 6 s f w l l j s e 6 & . . U ^ _ _ [ { . s E ^ U N I ",
"V B m g s . w f v B C C B m g 6 o . L E W ' ' [ } R g W X G G G ",
"v c g 8 6 . s s f B v I P V 6 $ X J I Y W ' ' { } R 3 r . f B M ",
"w 7 6 $ . . r s c c c f s e * $ N G I W ` ` ' ] { } - . c 6 t s ",
"6 $ + . 6 0 @ i u u m c 8 2 1 g B D Z U Q Q ` ' ] { J 7 B I = 6 ",
"O . . 0 8 f g g . i i r 7 2 . g c D G G R W ^ / ' ' g . g D @ # ",
"G ' Y . f G G L C g i r 7 . d f c m B D J U E W ^ / B d 7 s 7 @ ",
"W Q J W . B / U Q U l g ^ . a s f c c B C G I B M I N r . . g U ",
"K T W Q E 9 U J r 9 2 w m m 8 a s f g c c l c c t r m 7 . j b G ",
"Z H I M U c u u 9 . V E 6 6 8 8 t y y f 7 9 0 0 7 7 6 . 6 6 c c ",
"c N B D J r . 9 g V ! / _ ! . * 1 2 2 3 6 3 4 3 . . w . , w t g ",
"g c b B m 7 : , s c N ! / ) !   . X - > 5 3 - = , g M G   3 8 s ",
"$ * : 2 2 2 o 6 8 s m B U ! ! D @ < q k z k q = s B Y ^ U o O $ ",
". . . . . . . O & , s a N N B m - p n H K Z p . 2 u x A b . ^ . ",
" .} { ' _ / W B . . * 1 6 1 1 = + > p z v 4 > Y } E X ^ .  ... .",
"{ { ' ' / W W I L f . . . L P P L Z Z X 0 4 L ^ ) / ! m ^  .| ~ ",
"' ' ' / ~ W Y P V m . Z ( ( ` ` Z W T H c = m V N V N f ) { { { "
};
