/* XPM */
static char *_f4a8f91ada846f0fdb2cbd0aab203efT43PK6sHPMPM66af[] = {
/* columns rows colors chars-per-pixel */
"32 32 166 2 ",
"   c #31171C",
".  c #35191C",
"X  c #3C1B1C",
"o  c #4C1319",
"O  c #431C1D",
"+  c #4A1E1E",
"@  c #52161A",
"#  c #58171B",
"$  c #531E1F",
"%  c #5B1C1D",
"&  c #751307",
"*  c #641B1C",
"=  c #6B1E1D",
"-  c #4D211D",
";  c #54211E",
":  c #5B231F",
">  c #5D291E",
",  c #62251F",
"<  c #6B251E",
"1  c #652A1E",
"2  c #6C2B1E",
"3  c #74231D",
"4  c #722C1F",
"5  c #792C1F",
"6  c #69301D",
"7  c #7C311F",
"8  c #4C1E20",
"9  c #521F20",
"0  c #5D2220",
"q  c #652420",
"w  c #6B2521",
"e  c #672821",
"r  c #6D2920",
"t  c #732622",
"y  c #7B2522",
"u  c #742A21",
"i  c #7B2B22",
"p  c #7D3121",
"a  c #7D4020",
"s  c #A31E0B",
"d  c #932005",
"f  c #992105",
"g  c #9D2F08",
"h  c #89261B",
"j  c #832A1F",
"k  c #922A1F",
"l  c #9D2D1D",
"z  c #83331E",
"x  c #8B371F",
"c  c #893B19",
"v  c #9C3810",
"b  c #93321E",
"n  c #9C3A1C",
"m  c #A92606",
"M  c #A63806",
"N  c #BD3F05",
"B  c #A82A1B",
"V  c #A9351D",
"C  c #B63E1F",
"Z  c #832621",
"A  c #832C22",
"S  c #8B2C23",
"D  c #932C23",
"F  c #9B2E23",
"G  c #843122",
"H  c #8D3223",
"J  c #863921",
"K  c #8B3D21",
"L  c #933323",
"P  c #9C3424",
"I  c #953A21",
"U  c #9C3A23",
"Y  c #A12E23",
"T  c #AC2F24",
"R  c #A43424",
"E  c #AC3323",
"W  c #A33A23",
"Q  c #AB3D23",
"!  c #B33323",
"~  c #B33F26",
"^  c #BB3A22",
"/  c #C62E08",
"(  c #CD3707",
")  c #C93905",
"_  c #DB3606",
"`  c #DF3804",
"'  c #E33D05",
"]  c #ED3F02",
"[  c #C03723",
"{  c #CF3B25",
"}  c #92441D",
"|  c #9E461E",
" . c #914B1F",
".. c #9F5B1C",
"X. c #BA4A06",
"o. c #A94A1E",
"O. c #B1431F",
"+. c #A6551E",
"@. c #B95E1E",
"#. c #8A4420",
"$. c #944121",
"%. c #994423",
"&. c #934A21",
"*. c #9D4B22",
"=. c #A44322",
"-. c #AB4322",
";. c #A44821",
":. c #A84A23",
">. c #B44423",
",. c #BC4524",
"<. c #B34C24",
"1. c #BB4F25",
"2. c #B24228",
"3. c #AE5223",
"4. c #B35123",
"5. c #B85625",
"6. c #D64D07",
"7. c #D3490A",
"8. c #DE4E0A",
"9. c #DB4519",
"0. c #D45916",
"q. c #F74401",
"w. c #E55305",
"e. c #E95404",
"r. c #F15403",
"t. c #FE5A01",
"y. c #FF5C01",
"u. c #FF5F01",
"i. c #D26603",
"p. c #D36F1F",
"a. c #FF6101",
"s. c #FF6400",
"d. c #FF6901",
"f. c #FF6C00",
"g. c #FE7400",
"h. c #FF7B00",
"j. c #CD4222",
"k. c #C24922",
"l. c #C94824",
"z. c #C25620",
"x. c #CE5023",
"c. c #C45A23",
"v. c #D45924",
"b. c #DC5F25",
"n. c #E04026",
"m. c #EC5B24",
"M. c #C76123",
"N. c #DE6721",
"B. c #D56924",
"V. c #C67120",
"C. c #FF8500",
"Z. c #FF8A00",
"A. c #F19206",
"S. c #FF9300",
"D. c #FF9B00",
"F. c #FFA300",
"G. c #FFAC00",
"H. c #FFB300",
"J. c #FFBB01",
"K. c #E78224",
"L. c #EB8323",
"P. c #FDAB25",
"I. c #FFC501",
"U. c #FFCC01",
"Y. c #FED100",
"T. c #FFD802",
/* pixels */
", e w e 9 t 5 u.A i i i u w w t t H G G H H H q w w 9 t.o 0 0 0 ",
"r 4 q 9 $ X n <.y q 0 9 9 q y [ s.c.H q S R t t.i t s t.w w r r ",
"A A + h l 0.Y.4.t.! Y E ! t.8 O f.J.f.! E u.& _ ! q.f d 0 5 p p ",
"O + k t.M I.3.A t t t 7.w 0 9 8 ; > + . t.] t.o o o 9 @ t.A < > ",
"Z l u.0 K d.y w q q q w u.w , : 0 O 8 O 8 o o o o # # # % , , > ",
"a.m $ w A y w q , e w w q i w r r , 0 0 0 o # # # % * * 3 f.O.C ",
"2 ; $ H i u q w 2 w r p n L S A i i i u 0 # * * * = = 3 j o.D.h.",
"z 1 0 H ,.U i w r u 4 - h.J.L A P L H G u % = 3 3 3 y A k @.I.+.",
"G u t >.Y.p.5 : r   < u.L L s.>.*.&.G D R a.y Z h S S S P Q g.=.",
"H A i S.K.B.f.t.h B ' t.u J @.J.F.g.j.r.X.N b L D D F F P R a.U ",
"S y u.4 =.-.D.V S Z.) a.1 ..I.S.*.i t a.g.I.Z.Z Y R E R R R u.P ",
"! u.u.: 4 g.R A u 5 Z.C.| h.%.A w w < t H <.g.E S y y F F S t.F ",
"X . O c D.Z.=.G w G H.i.f.i q q w q q q w i A g.x.T Y F E E a.. ",
"O X ; 2 ..D.;.G 2 X s.g.A u q e e e r w u u *.I.W y t.a.h.G.e 0 ",
", : ; 1 c &.f.1 2 g.g f.G q e 2 < w r u u K D.:.w 0 q H 1.C.p e ",
"u r 2 1 r u 4 s.f.1.<.Z.&.p w r r u . O t h.h.H r e e G R u G u ",
"A A y + 0 u U s.H r 7 S.I.#.u 5 :   < h a.N G.H I z u H D q H S ",
"i i G 3 u E N.I.H > 1  .A.I.G.a.u.u.t.t.u.u.f.v.z.7 j T u.F y : ",
"F D D T u.s.c.S.I e , > M.5.7 p u.8.u.t.q i >.T.P.m.a.u.S D u.8.",
"% , q t.e u U a.u + ; H a.=.6 U f.s.A : ; , %.B.J.f.G t t t t.$ ",
"A S F q + ; y u.E U e.O 8 e z Z.G.1.J 0 - - u U N.s.G r w $ % A ",
"t Y u.u 2 r i u.O O + + ; 1 I V.U.z.I r : 0 O u a.d.u 8 O U w A ",
"9.t.t.P H L e.O - - + ; : 4 x 3.G.>.U G u z S.S.S.e.~ P 2.u.! ! ",
"0 0 0 u.,.l.a.; ; 0 e w w r u L s.f.2.P ; u.O 0 r i t.S A y Z t.",
"8 + > u D.I.4 2 r u u u i r q e.#.S.U.S.Z.p p u u w P H A w t.t ",
"0 0 w L ,.g.i u i A A A A i y t q $.&.&.h.J U P P ! L D G i D t ",
"r u r < D a.i A G H L H A w P S w 8 u H S u.y T u.g.9 P H . D A ",
"E E ! { n.6.H L P P R q A W j.u.X 0 G A H t.t.q w q v X   A D { ",
"O O 0 % r F.i U A , q y k.L.G.L 8 e y G / ( w y A t t.A t.t t.X ",
"O O 8 ; w D.I A A S F ^ f.J.<.G A L R u.t.' w S y Z t r t.. X O ",
"O + $ 0 q a.Q H.0.l.w.O > 4 s.5 a.O O 8 8 8 8 t.u.t.X w X X X X ",
"- 0 0 0 9 i L h.} 1 ; ; ; ; 0 u.0 0 q 0 0 0 0 9 . X 8 u.O . 8 8 "
};
