/* XPM */
static char *_bdf3e67b3554d83b94679802d7d4e37LanUZ4H5rj8826GA[] = {
/* columns rows colors chars-per-pixel */
"32 32 17 1 ",
"  c #120B0B",
". c #130B0B",
"X c #1F1212",
"o c #1E1313",
"O c #1F1313",
"+ c #161A13",
"@ c #151A14",
"# c #161A14",
"$ c #331F1F",
"% c gray29",
"& c #4B4B4B",
"* c #5B5B5B",
"= c gray36",
"- c #7C7C7C",
"; c gray49",
": c gray64",
"> c #A4A4A4",
/* pixels */
">$;=::>>>;$;=>>:>>>>>>>>>>>;$;=>",
";@=;;;;;;>+=;;;;;;;;;;;;;;;>#=;;",
";$>;;;;;;;+=;;;;;;;;;;;;;;;;#>;;",
";O;>;;%%;&O;>;;&&&;&;&;;&;;;O;>;",
"OOOO$$$$$OOOOOO$$$@@$@$+$$$OO#$$",
"-;O;=>>:>::>-O;=>>>>>>>>;$==:>>>",
";;$*;;;;;;;;:$*;;;;;;;;;>$=;;;;;",
";;$>;;;;;;;;;+>;;;;;;;;;;@>;;;;;",
";;@>;;;;;;;;%+:;;;;;;;;;;@>;;;;;",
";;O;:;;%;%%;;O;>;;&&;&%;;O;>;&;;",
"$OO O$$$$$$$O  o$$$$$$$$OOOOO$$$",
">>;O;=>>>>>>>; ;=>>>>:::>>;O;=>>",
"-;>$=;;;----->$*;;;;;;;;;;>@O;;;",
";;;$>;;;;;;;-;@>--;;;;;;-;;@>;;;",
";;;o;>;%%&%%%-@-:-;&;%;%&&;O;:;;",
"$$ooo$$$ooo$$OOO$$$$$$$OOOOOO$$$",
">>>>>>>>;O;=>>>:>:>>>>>;O;=>>>>>",
";;;;;;;;:@=;;;;;;;;;;;;>@=;;;;;;",
";;;;;;;;;@>;;;;;;;;;;;;;@>;;;;;;",
";&&&;;&;;$;>>;&&;;&&;&&;O;>;;;;;",
"$@@OOO$$@$$$$@@OOO$$$@$@OO$$$$$$",
">>>;O;=>>>>>>:>;O;=>>>>>>>;$;=>>",
";;;>$=;;;;;;;;;>@>>;;;;;;;>@=;;;",
";;;;$:;;;;;;-;;;@=;;;;;;;;;@>;;;",
";;;;$;>;;&;%&&&;$;>;;;;;;;;$;>;;",
"$@@$$$@$$$$@@$$$$$$$$$$@@+$$$$$$",
">>>>>>>;$;=>>>>>>>>;$;=>:>$>>>:>",
";=>>>>>;$;=>>>>>>>>>>>>>>;$;=;;;",
"=;;;;;;>@=;;;;;;;;;;;;;;;>@=;;;;",
">;;;;;;;@=;;;;;;;;;;;;;;;;@>;&&;",
";>;;&&;&O;:;;&&&;&;%;;%;;;O;>;;;",
"OO$$$$$OOOOOO$$$@@$@$@$$$OO@$$$$"
};
