/* XPM */
static char *_96677eaebdc48268330d95fa74fd6adYgodbdloeg1GM605[] = {
/* columns rows colors chars-per-pixel */
"32 32 3 1 ",
"  c #591005",
". c #73261C",
"X c gray74",
/* pixels */
"........ X ............... X ...",
"         X                 X    ",
"XXXXXXXXXXXXXXXXXXXXXXXXXXXXXXXX",
". X............... X ...........",
"  X                X            ",
"XXXXXXXXXXXXXXXXXXXXXXXXXXXXXXXX",
"............. X ............ X .",
"              X              X  ",
"XXXXXXXXXXXXXXXXXXXXXXXXXXXXXXXX",
"...... X ............ X ........",
"       X              X         ",
"XXXXXXXXXXXXXXXXXXXXXXXXXXXXXXXX",
"X...........  X............. X  ",
"X             X              X .",
"XXXXXXXXXXXXXXXXXXXXXXXXXXXXXXXX",
".... X ............X ..........X",
"     X             X           X",
"XXXXXXXXXXXXXXXXXXXXXXXXXXXXXXXX",
"......... X ...........X        ",
"          X            X .......",
"XXXXXXXXXXXXXXXXXXXXXXXXXXXXXXXX",
".. X ...........X ..........X ..",
"   X            X           X   ",
"XXXXXXXXXXXXXXXXXXXXXXXXXXXXXXXX",
" .......... X......... X........",
"            X          X        ",
"XXXXXXXXXXXXXXXXXXXXXXXXXXXXXXXX",
".X........... X......... X .....",
" X            X          X      ",
"XXXXXXXXXXXXXXXXXXXXXXXXXXXXXXXX",
".... X............ X ...........",
"     X             X            "
};
